<?xml version="1.0" encoding="UTF-8" standalone="no"?>
<!DOCTYPE svg PUBLIC "-//W3C//DTD SVG 1.1//EN"
 "http://www.w3.org/Graphics/SVG/1.1/DTD/svg11.dtd">
<!-- Generated by graphviz version 14.1.2 (20260124.0452)
 -->
<!-- Title: TuringMachine Pages: 1 -->
<svg width="922pt" height="734pt"
 viewBox="0.00 0.00 922.00 734.00" xmlns="http://www.w3.org/2000/svg" xmlns:xlink="http://www.w3.org/1999/xlink">
<g id="graph0" class="graph" transform="scale(1 1) rotate(0) translate(4 729.61)">
<title>TuringMachine</title>
<polygon fill="white" stroke="none" points="-4,4 -4,-729.61 918.19,-729.61 918.19,4 -4,4"/>
<!-- done -->
<g id="node1" class="node">
<title>done</title>
<ellipse fill="none" stroke="green" cx="829.06" cy="-583.13" rx="28.83" ry="28.83"/>
<ellipse fill="none" stroke="green" cx="829.06" cy="-583.13" rx="32.83" ry="32.83"/>
<text xml:space="preserve" text-anchor="middle" x="829.06" y="-578.08" font-family="Times New Roman,serif" font-size="14.00">done</text>
</g>
<!-- fail -->
<g id="node2" class="node">
<title>fail</title>
<ellipse fill="none" stroke="red" cx="829.06" cy="-505.13" rx="23.2" ry="23.2"/>
<ellipse fill="none" stroke="red" cx="829.06" cy="-505.13" rx="27.2" ry="27.2"/>
<text xml:space="preserve" text-anchor="middle" x="829.06" y="-500.08" font-family="Times New Roman,serif" font-size="14.00">fail</text>
</g>
<!-- entry -->
<g id="node3" class="node">
<title>entry</title>
<ellipse fill="black" stroke="black" cx="1.8" cy="-256.13" rx="1.8" ry="1.8"/>
</g>
<!-- start -->
<g id="node4" class="node">
<title>start</title>
<ellipse fill="none" stroke="black" cx="67.38" cy="-256.13" rx="26.78" ry="26.78"/>
<text xml:space="preserve" text-anchor="middle" x="67.38" y="-251.08" font-family="Times New Roman,serif" font-size="14.00">start</text>
</g>
<!-- entry&#45;&gt;start -->
<g id="edge1" class="edge">
<title>entry&#45;&gt;start</title>
<path fill="none" stroke="black" d="M3.9,-256.13C7.22,-256.13 17.56,-256.13 28.9,-256.13"/>
<polygon fill="black" stroke="black" points="28.84,-259.63 38.84,-256.13 28.84,-252.63 28.84,-259.63"/>
</g>
<!-- start&#45;&gt;done -->
<g id="edge8" class="edge">
<title>start&#45;&gt;done</title>
<path fill="none" stroke="black" d="M68.19,-283.37C69.31,-358.56 84.11,-569.18 211.17,-655.13 396.37,-780.43 686.33,-655.48 789.8,-603.5"/>
<polygon fill="black" stroke="black" points="791.11,-606.75 798.44,-599.1 787.94,-600.52 791.11,-606.75"/>
<text xml:space="preserve" text-anchor="middle" x="470.04" y="-712.31" font-family="Times New Roman,serif" font-size="14.00">BLANK / BLANK, S</text>
</g>
<!-- move_right_end_1_q -->
<g id="node5" class="node">
<title>move_right_end_1_q</title>
<ellipse fill="none" stroke="black" cx="301.42" cy="-505.13" rx="90.25" ry="90.25"/>
<text xml:space="preserve" text-anchor="middle" x="301.42" y="-500.08" font-family="Times New Roman,serif" font-size="14.00">move_right_end_1_q</text>
</g>
<!-- start&#45;&gt;move_right_end_1_q -->
<g id="edge2" class="edge">
<title>start&#45;&gt;move_right_end_1_q</title>
<path fill="none" stroke="black" d="M86.21,-275.26C116.89,-308.18 181.24,-377.24 231.44,-431.11"/>
<polygon fill="black" stroke="black" points="228.65,-433.24 238.02,-438.17 233.77,-428.47 228.65,-433.24"/>
<text xml:space="preserve" text-anchor="middle" x="152.67" y="-391.3" font-family="Times New Roman,serif" font-size="14.00">0 / BLANK, R</text>
</g>
<!-- move_right_end_2_q -->
<g id="node7" class="node">
<title>move_right_end_2_q</title>
<ellipse fill="none" stroke="black" cx="301.42" cy="-256.13" rx="90.25" ry="90.25"/>
<text xml:space="preserve" text-anchor="middle" x="301.42" y="-251.08" font-family="Times New Roman,serif" font-size="14.00">move_right_end_2_q</text>
</g>
<!-- start&#45;&gt;move_right_end_2_q -->
<g id="edge5" class="edge">
<title>start&#45;&gt;move_right_end_2_q</title>
<path fill="none" stroke="black" d="M94.55,-256.13C120.22,-256.13 161.02,-256.13 199.55,-256.13"/>
<polygon fill="black" stroke="black" points="199.37,-259.63 209.37,-256.13 199.37,-252.63 199.37,-259.63"/>
<text xml:space="preserve" text-anchor="middle" x="152.67" y="-259.33" font-family="Times New Roman,serif" font-size="14.00">1 / BLANK, R</text>
</g>
<!-- move_right_end_1_q&#45;&gt;move_right_end_1_q -->
<g id="edge3" class="edge">
<title>move_right_end_1_q&#45;&gt;move_right_end_1_q</title>
<path fill="none" stroke="black" d="M276.25,-592.19C280.25,-604.85 288.63,-613.38 301.42,-613.38 310.41,-613.38 317.22,-609.16 321.87,-602.26"/>
<polygon fill="black" stroke="black" points="324.87,-604.1 325.94,-593.56 318.53,-601.13 324.87,-604.1"/>
<text xml:space="preserve" text-anchor="middle" x="301.42" y="-633.08" font-family="Times New Roman,serif" font-size="14.00">0 / 0, R</text>
<text xml:space="preserve" text-anchor="middle" x="301.42" y="-616.58" font-family="Times New Roman,serif" font-size="14.00">1 / 1, R</text>
</g>
<!-- q1 -->
<g id="node6" class="node">
<title>q1</title>
<ellipse fill="none" stroke="black" cx="568.55" cy="-505.13" rx="20.13" ry="20.13"/>
<text xml:space="preserve" text-anchor="middle" x="568.55" y="-500.08" font-family="Times New Roman,serif" font-size="14.00">q1</text>
</g>
<!-- move_right_end_1_q&#45;&gt;q1 -->
<g id="edge4" class="edge">
<title>move_right_end_1_q&#45;&gt;q1</title>
<path fill="none" stroke="black" d="M391.81,-505.13C441.97,-505.13 501.39,-505.13 536.69,-505.13"/>
<polygon fill="black" stroke="black" points="536.61,-508.63 546.61,-505.13 536.61,-501.63 536.61,-508.63"/>
<text xml:space="preserve" text-anchor="middle" x="470.04" y="-508.33" font-family="Times New Roman,serif" font-size="14.00">BLANK / BLANK, L</text>
</g>
<!-- q1&#45;&gt;done -->
<g id="edge13" class="edge">
<title>q1&#45;&gt;done</title>
<path fill="none" stroke="black" d="M586.09,-515.72C592.36,-519.4 599.67,-523.31 606.68,-526.13 666.61,-550.3 739.86,-566.78 785.25,-575.58"/>
<polygon fill="black" stroke="black" points="784.47,-579 794.95,-577.42 785.78,-572.12 784.47,-579"/>
<text xml:space="preserve" text-anchor="middle" x="666.3" y="-565.81" font-family="Times New Roman,serif" font-size="14.00">BLANK / BLANK, S</text>
</g>
<!-- q1&#45;&gt;fail -->
<g id="edge12" class="edge">
<title>q1&#45;&gt;fail</title>
<path fill="none" stroke="black" d="M588.98,-505.13C631.73,-505.13 734.59,-505.13 790.44,-505.13"/>
<polygon fill="black" stroke="black" points="790.09,-508.63 800.09,-505.13 790.09,-501.63 790.09,-508.63"/>
<text xml:space="preserve" text-anchor="middle" x="666.3" y="-508.33" font-family="Times New Roman,serif" font-size="14.00">1 / 1, S</text>
</g>
<!-- move_left_end_3_q -->
<g id="node9" class="node">
<title>move_left_end_3_q</title>
<ellipse fill="none" stroke="black" cx="829.06" cy="-324.13" rx="85.13" ry="85.13"/>
<text xml:space="preserve" text-anchor="middle" x="829.06" y="-319.08" font-family="Times New Roman,serif" font-size="14.00">move_left_end_3_q</text>
</g>
<!-- q1&#45;&gt;move_left_end_3_q -->
<g id="edge9" class="edge">
<title>q1&#45;&gt;move_left_end_3_q</title>
<path fill="none" stroke="black" d="M569.45,-484.55C570.49,-456.13 576.75,-405.14 606.68,-376.63 640.03,-344.86 688.92,-331.14 732.28,-325.62"/>
<polygon fill="black" stroke="black" points="732.42,-329.13 741.96,-324.53 731.64,-322.17 732.42,-329.13"/>
<text xml:space="preserve" text-anchor="middle" x="666.3" y="-379.83" font-family="Times New Roman,serif" font-size="14.00">0 / BLANK, L</text>
</g>
<!-- move_right_end_2_q&#45;&gt;move_right_end_2_q -->
<g id="edge6" class="edge">
<title>move_right_end_2_q&#45;&gt;move_right_end_2_q</title>
<path fill="none" stroke="black" d="M276.25,-343.19C280.25,-355.85 288.63,-364.38 301.42,-364.38 310.41,-364.38 317.22,-360.16 321.87,-353.26"/>
<polygon fill="black" stroke="black" points="324.87,-355.1 325.94,-344.56 318.53,-352.13 324.87,-355.1"/>
<text xml:space="preserve" text-anchor="middle" x="301.42" y="-384.08" font-family="Times New Roman,serif" font-size="14.00">0 / 0, R</text>
<text xml:space="preserve" text-anchor="middle" x="301.42" y="-367.58" font-family="Times New Roman,serif" font-size="14.00">1 / 1, R</text>
</g>
<!-- q2 -->
<g id="node8" class="node">
<title>q2</title>
<ellipse fill="none" stroke="black" cx="568.55" cy="-266.13" rx="20.13" ry="20.13"/>
<text xml:space="preserve" text-anchor="middle" x="568.55" y="-261.08" font-family="Times New Roman,serif" font-size="14.00">q2</text>
</g>
<!-- move_right_end_2_q&#45;&gt;q2 -->
<g id="edge7" class="edge">
<title>move_right_end_2_q&#45;&gt;q2</title>
<path fill="none" stroke="black" d="M391.81,-259.5C441.97,-261.39 501.39,-263.64 536.69,-264.97"/>
<polygon fill="black" stroke="black" points="536.48,-268.46 546.61,-265.34 536.75,-261.47 536.48,-268.46"/>
<text xml:space="preserve" text-anchor="middle" x="470.04" y="-267.88" font-family="Times New Roman,serif" font-size="14.00">BLANK / BLANK, L</text>
</g>
<!-- q2&#45;&gt;done -->
<g id="edge18" class="edge">
<title>q2&#45;&gt;done</title>
<path fill="none" stroke="black" d="M571.53,-286.27C574.96,-312.79 583.97,-359.96 606.68,-393.13 644.42,-448.25 687.53,-429.97 725.93,-484.63 741.08,-506.2 726.79,-521.11 743.93,-541.13 755.14,-554.23 771.43,-563.67 786.69,-570.24"/>
<polygon fill="black" stroke="black" points="785.02,-573.34 795.6,-573.78 787.6,-566.84 785.02,-573.34"/>
<text xml:space="preserve" text-anchor="middle" x="666.3" y="-487.83" font-family="Times New Roman,serif" font-size="14.00">BLANK / BLANK, S</text>
</g>
<!-- q2&#45;&gt;fail -->
<g id="edge17" class="edge">
<title>q2&#45;&gt;fail</title>
<path fill="none" stroke="black" d="M588.94,-264.77C622.53,-263.58 691.22,-266.57 725.93,-306.63 773.51,-361.55 700.63,-410.78 743.93,-469.13 755.11,-484.2 773.89,-493.03 790.87,-498.17"/>
<polygon fill="black" stroke="black" points="789.64,-501.46 800.21,-500.65 791.44,-494.7 789.64,-501.46"/>
<text xml:space="preserve" text-anchor="middle" x="666.3" y="-309.83" font-family="Times New Roman,serif" font-size="14.00">0 / 0, S</text>
</g>
<!-- move_left_end_4_q -->
<g id="node10" class="node">
<title>move_left_end_4_q</title>
<ellipse fill="none" stroke="black" cx="829.06" cy="-85.13" rx="85.13" ry="85.13"/>
<text xml:space="preserve" text-anchor="middle" x="829.06" y="-80.08" font-family="Times New Roman,serif" font-size="14.00">move_left_end_4_q</text>
</g>
<!-- q2&#45;&gt;move_left_end_4_q -->
<g id="edge14" class="edge">
<title>q2&#45;&gt;move_left_end_4_q</title>
<path fill="none" stroke="black" d="M585.72,-254.81C617.88,-232.29 691.74,-180.58 749.52,-140.12"/>
<polygon fill="black" stroke="black" points="751.23,-143.2 757.41,-134.6 747.21,-137.46 751.23,-143.2"/>
<text xml:space="preserve" text-anchor="middle" x="666.3" y="-243.06" font-family="Times New Roman,serif" font-size="14.00">1 / BLANK, L</text>
</g>
<!-- move_left_end_3_q&#45;&gt;start -->
<g id="edge11" class="edge">
<title>move_left_end_3_q&#45;&gt;start</title>
<path fill="none" stroke="black" d="M767.42,-264.98C758.55,-254.06 750.28,-242.25 743.93,-230.13 728.01,-199.77 752.85,-176.35 725.93,-155.13 636.1,-84.31 320.26,-122.71 211.17,-157.13 165.94,-171.4 122.41,-205.49 95.55,-229.66"/>
<polygon fill="black" stroke="black" points="93.2,-227.07 88.22,-236.41 97.94,-232.22 93.2,-227.07"/>
<text xml:space="preserve" text-anchor="middle" x="470.04" y="-124.36" font-family="Times New Roman,serif" font-size="14.00">BLANK / BLANK, R</text>
</g>
<!-- move_left_end_3_q&#45;&gt;move_left_end_3_q -->
<g id="edge10" class="edge">
<title>move_left_end_3_q&#45;&gt;move_left_end_3_q</title>
<path fill="none" stroke="black" d="M800.7,-404.56C804.66,-417.99 814.12,-427.26 829.06,-427.26 839.8,-427.26 847.7,-422.47 852.77,-414.79"/>
<polygon fill="black" stroke="black" points="855.85,-416.49 856.8,-405.94 849.47,-413.59 855.85,-416.49"/>
<text xml:space="preserve" text-anchor="middle" x="829.06" y="-446.96" font-family="Times New Roman,serif" font-size="14.00">0 / 0, L</text>
<text xml:space="preserve" text-anchor="middle" x="829.06" y="-430.46" font-family="Times New Roman,serif" font-size="14.00">1 / 1, L</text>
</g>
<!-- move_left_end_4_q&#45;&gt;start -->
<g id="edge16" class="edge">
<title>move_left_end_4_q&#45;&gt;start</title>
<path fill="none" stroke="black" d="M743.84,-79.19C623.5,-73.06 396.44,-70.3 211.17,-119.13 165.12,-131.27 146.43,-127.05 112.17,-160.13 95.57,-176.16 84.7,-199.66 77.95,-219.4"/>
<polygon fill="black" stroke="black" points="74.67,-218.17 74.98,-228.76 81.34,-220.28 74.67,-218.17"/>
<text xml:space="preserve" text-anchor="middle" x="470.04" y="-88.42" font-family="Times New Roman,serif" font-size="14.00">BLANK / BLANK, R</text>
</g>
<!-- move_left_end_4_q&#45;&gt;move_left_end_4_q -->
<g id="edge15" class="edge">
<title>move_left_end_4_q&#45;&gt;move_left_end_4_q</title>
<path fill="none" stroke="black" d="M800.7,-165.56C804.66,-178.99 814.12,-188.26 829.06,-188.26 839.8,-188.26 847.7,-183.47 852.77,-175.79"/>
<polygon fill="black" stroke="black" points="855.85,-177.49 856.8,-166.94 849.47,-174.59 855.85,-177.49"/>
<text xml:space="preserve" text-anchor="middle" x="829.06" y="-207.96" font-family="Times New Roman,serif" font-size="14.00">0 / 0, L</text>
<text xml:space="preserve" text-anchor="middle" x="829.06" y="-191.46" font-family="Times New Roman,serif" font-size="14.00">1 / 1, L</text>
</g>
</g>
</svg>
